<svg width="265.607421875px" height="155.61754150390624px" xmlns="http://www.w3.org/2000/svg" viewBox="117.1962890625 -2.8087707519531193 265.607421875 155.61754150390624" style="background: rgba(0, 0, 0, 0);" preserveAspectRatio="xMidYMid"><defs><linearGradient id="editing-sticker-gradient" x1="0.5" y1="0.2" x2="0.5" y2="0.8"><stop offset="0" stop-color="#fd9"></stop><stop offset="1" stop-color="#9df"></stop></linearGradient><filter id="editing-sticker" x="-100%" y="-100%" width="300%" height="300%"><feMorphology operator="erode" radius="1" in="SourceAlpha" result="alpha-erode"></feMorphology><feConvolveMatrix order="3,3" divisor="1" kernelMatrix="0 1 0 1 1 1 0 1 0" in="alpha-erode" result="alpha-round"></feConvolveMatrix><feMorphology operator="dilate" radius="3.5" in="alpha-round" result="dilate-shadow"></feMorphology><feGaussianBlur in="dilate-shadow" stdDeviation="1.5" result="shadow"></feGaussianBlur><feFlood flood-color="#fff" result="flood-sticker"></feFlood><feComposite operator="in" in="flood-sticker" in2="alpha-round" result="comp-sticker"></feComposite><feMorphology operator="dilate" radius="3" in="comp-sticker" result="morph-sticker"></feMorphology><feConvolveMatrix order="3,3" divisor="1" kernelMatrix="0 1 0 1 1 1 0 1 0" in="morph-sticker" result="sticker"></feConvolveMatrix><feMerge><feMergeNode in="shadow"></feMergeNode><feMergeNode in="sticker"></feMergeNode><feMergeNode in="SourceGraphic"></feMergeNode></feMerge></filter></defs><g filter="url(#editing-sticker)"><g transform="translate(164.0238049030304, 103.67371368408203)"><path d="M15.87-14.98L15.30-13.95L12.22-6.14L12.22-6.14Q11.58-4.35 11.07-2.43L11.07-2.43L11.07-2.43Q10.56-0.51 9.98 0.93L9.98 0.93L9.98 0.93Q9.41 2.37 8.22 3.20L8.22 3.20L8.22 3.20Q7.04 4.03 5.57 4.45L5.57 4.45L5.57 4.45Q4.10 4.86 2.53 4.80L2.53 4.80L2.53 4.80Q0.96 4.74-0.26 4.22L-0.26 4.22L-0.26 4.22Q-3.01 2.94-2.18 0L-2.18 0L-2.18 0Q0.77-12.93 3.36-20.74L3.36-20.74L3.36-20.74Q5.95-28.54 7.65-33.02L7.65-33.02L7.65-33.02Q9.34-37.50 11.20-42.50L11.20-42.50L11.20-42.50Q11.39-44.35 12.74-45.82L12.74-45.82L12.74-45.82Q14.08-47.30 15.90-48.26L15.90-48.26L15.90-48.26Q17.73-49.22 19.71-49.63L19.71-49.63L19.71-49.63Q21.70-50.05 23.23-49.73L23.23-49.73L23.23-49.73Q24.77-49.41 25.50-48.32L25.50-48.32L25.50-48.32Q26.24-47.23 25.60-45.18L25.60-45.18L25.60-45.18Q23.30-39.30 22.34-36.86L22.34-36.86L22.34-36.86Q21.38-34.43 20.61-32.51L20.61-32.51L18.82-28.29L18.82-28.29Q20.16-28.22 22.21-28.67L22.21-28.67L22.21-28.67Q25.92-29.50 27.58-29.25L27.58-29.25L27.58-29.25Q27.58-29.57 27.90-30.34L27.90-30.34L27.90-30.34Q29.70-38.14 31.94-44.67L31.94-44.67L31.94-44.67Q33.54-50.05 40.19-50.30L40.19-50.30L40.19-50.30Q42.82-50.30 44.16-49.02L44.16-49.02L44.16-49.02Q45.63-47.68 44.54-45.38L44.54-45.38L44.54-45.38Q38.66-28.86 36.22-19.33L36.22-19.33L36.22-19.33Q33.47-8.32 32.61-4.48L32.61-4.48L32.61-4.48Q31.74-0.64 31.10 0.06L31.10 0.06L31.10 0.06Q30.46 0.77 29.79 1.06L29.79 1.06L29.79 1.06Q29.12 1.34 28.48 1.60L28.48 1.60L28.48 1.60Q27.84 1.86 27.46 2.88L27.46 2.88L27.26 2.88L27.26 2.88Q26.75 4.03 25.02 4.67L25.02 4.67L25.02 4.67Q23.30 5.31 21.54 5.15L21.54 5.15L21.54 5.15Q19.78 4.99 18.59 3.87L18.59 3.87L18.59 3.87Q17.41 2.75 17.98 0.45L17.98 0.45L17.98 0.45Q18.62-3.20 20.10-7.39L20.10-7.39L20.10-7.39Q21.57-11.58 22.43-13.95L22.43-13.95L22.43-13.95Q23.30-16.32 23.87-18.37L23.87-18.37L23.87-18.37Q23.36-18.11 22.88-17.98L22.88-17.98L22.88-17.98Q22.40-17.86 21.70-17.50L21.70-17.50L21.70-17.50Q20.99-17.15 20.26-16.90L20.26-16.90L20.26-16.90Q19.52-16.64 18.82-16.38L18.82-16.38L18.82-16.38Q17.02-15.68 15.87-14.98L15.87-14.98ZM22.53-18.24L22.53-18.24L22.53-18.24Q22.59-18.24 23.17-18.43L23.17-18.43L23.17-18.43Q22.78-18.30 22.53-18.24ZM64.64-43.26L64.64-43.26L64.64-43.26Q62.40-36.29 60.51-30.66L60.51-30.66L60.51-30.66Q58.62-25.02 57.06-20.29L57.06-20.29L57.06-20.29Q55.49-15.55 54.14-11.55L54.14-11.55L54.14-11.55Q52.80-7.55 51.65-3.90L51.65-3.90L51.65-3.90Q51.01 0.32 47.49 2.05L47.49 2.05L47.49 2.05Q45.44 3.01 42.62 3.01L42.62 3.01L42.62 3.01Q39.81 3.01 38.40 2.40L38.40 2.40L38.40 2.40Q36.99 1.79 36.58 0.64L36.58 0.64L36.58 0.64Q36.16-0.51 36.58-2.14L36.58-2.14L36.58-2.14Q36.99-3.78 38.02-6.62L38.02-6.62L38.02-6.62Q39.04-9.47 40.61-14.34L40.61-14.34L40.61-14.34Q42.18-19.20 43.90-24.19L43.90-24.19L43.90-24.19Q48.19-36.67 50.69-41.47L50.69-41.47L50.69-41.47Q51.65-43.26 52.61-43.87L52.61-43.87L52.61-43.87Q53.57-44.48 54.46-44.77L54.46-44.77L54.46-44.77Q55.36-45.06 56.13-45.44L56.13-45.44L56.13-45.44Q56.90-45.82 57.50-47.36L57.50-47.36L57.50-47.36Q58.11-48.90 59.74-49.47L59.74-49.47L59.74-49.47Q61.38-50.05 62.82-49.57L62.82-49.57L62.82-49.57Q64.26-49.09 64.99-47.52L64.99-47.52L64.99-47.52Q65.73-45.95 64.64-43.26ZM94.91-48.26L94.91-48.26L95.17-48.19L95.17-48.19Q96.77-47.23 97.95-46.05L97.95-46.05L97.95-46.05Q99.14-44.86 100.13-43.55L100.13-43.55L100.13-43.55Q101.12-42.24 101.70-40.70L101.70-40.70L101.70-40.70Q104.13-34.82 97.47-27.52L97.47-27.52L97.47-27.52Q94.66-24.45 91.14-22.27L91.14-22.27L91.14-22.27Q92.03-21.63 92.83-21.34L92.83-21.34L92.83-21.34Q93.63-21.06 95.10-20.26L95.10-20.26L95.10-20.26Q96.58-19.46 97.02-17.25L97.02-17.25L97.02-17.25Q97.47-15.04 96.80-12.29L96.80-12.29L96.80-12.29Q96.13-9.54 94.37-6.62L94.37-6.62L94.37-6.62Q92.61-3.71 89.79-1.41L89.79-1.41L89.79-1.41Q83.39 3.90 74.94 3.07L74.94 3.07L74.94 3.07Q73.73 3.07 73.41 2.88L73.41 2.88L73.41 2.88Q73.09 2.69 72.90 2.56L72.90 2.56L72.90 2.56Q72.70 2.43 72.06 2.37L72.06 2.37L72.06 2.37Q70.46 3.65 68.42 3.97L68.42 3.97L68.42 3.97Q66.37 4.29 64.54 3.65L64.54 3.65L64.54 3.65Q62.72 3.01 61.47 1.47L61.47 1.47L61.47 1.47Q60.22-0.06 60.22-2.56L60.22-2.56L60.22-2.56Q60.42-4.22 60.86-5.18L60.86-5.18L60.86-5.18Q60.67-5.76 60.67-6.59L60.67-6.59L60.67-6.59Q62.85-18.18 64.77-24.32L64.77-24.32L64.77-24.32Q68.67-36.54 73.22-42.75L73.22-42.75L73.22-42.75Q76.93-48 83.52-49.54L83.52-49.54L83.52-49.54Q89.86-51.01 94.91-48.26ZM74.75-3.58L75.01-3.58L75.01-3.58Q75.78-3.78 76.32-3.68L76.32-3.68L76.32-3.68Q76.86-3.58 77.63-3.71L77.63-3.71L77.63-3.71Q79.49-3.90 82.62-6.02L82.62-6.02L82.62-6.02Q84.61-8 84.74-9.92L84.74-9.92L84.74-9.92Q84.86-11.84 84.16-12.38L84.16-12.38L84.16-12.38Q83.46-12.93 82.27-12.93L82.27-12.93L82.27-12.93Q81.09-12.93 79.65-12.58L79.65-12.58L79.65-12.58Q78.21-12.22 76.86-12.16L76.86-12.16L76.86-12.03L76.86-12.03Q76.54-10.75 76.22-9.79L76.22-9.79L76.22-9.79Q75.90-8.83 75.65-7.94L75.65-7.94L75.65-7.94Q75.07-5.82 74.75-3.58L74.75-3.58ZM86.91-36.86L86.91-36.86L86.91-36.86Q84.99-37.12 82.75-33.86L82.75-33.86L82.75-33.86Q81.34-31.81 80.58-27.65L80.58-27.65L80.58-27.65Q81.92-28.22 83.23-28.64L83.23-28.64L83.23-28.64Q84.54-29.06 85.70-29.57L85.70-29.57L85.70-29.57Q88.51-30.78 89.73-32.51L89.73-32.51L89.73-32.51Q91.14-34.18 90.62-35.33L90.62-35.33L90.62-35.33Q89.86-36.35 88.13-37.18L88.13-37.18L88.13-37.18Q87.62-36.74 86.91-36.86ZM86.14-37.12L85.95-37.12L86.14-37.12ZM110.08-45.44L110.08-45.44L110.08-45.44Q111.30-48.38 113.54-47.55L113.54-47.55L113.54-47.55Q114.18-48.96 114.66-49.34L114.66-49.34L114.66-49.34Q115.14-49.73 115.65-49.95L115.65-49.95L115.65-49.95Q116.16-50.18 116.74-50.43L116.74-50.43L116.74-50.43Q117.31-50.69 118.53-50.88L118.53-50.88L118.53-50.88Q119.74-51.07 121.22-51.10L121.22-51.10L121.22-51.10Q122.69-51.14 124.19-50.94L124.19-50.94L124.19-50.94Q125.70-50.75 126.72-50.11L126.72-50.11L126.72-50.11Q129.22-48.64 127.81-45.38L127.81-45.38L127.81-45.38Q127.94-45.44 127.74-45.25L127.74-45.25L127.17-44.16L126.72-43.58L126.72-43.58Q126.40-43.26 124.74-39.68L124.74-39.68L124.74-39.68Q123.39-37.12 121.98-34.62L121.98-34.62L121.98-34.62Q119.68-30.34 119.17-29.12L119.17-29.12L119.17-29.12Q121.41-30.34 124.35-32.64L124.35-32.64L124.35-32.64Q129.92-36.93 131.46-37.76L131.46-37.76L131.46-37.76Q132.99-38.59 133.60-38.78L133.60-38.78L133.60-38.78Q134.21-38.98 134.78-38.88L134.78-38.88L134.78-38.88Q135.36-38.78 136-38.53L136-38.53L137.60-37.89L137.60-37.89Q139.14-37.38 139.26-34.18L139.26-34.18L139.26-34.18Q139.33-31.04 137.98-29.44L137.98-29.44L137.98-29.44Q132.16-21.89 124.86-19.33L124.86-19.33L124.86-19.33Q122.62-18.50 120.26-17.92L120.26-17.92L120.26-17.92Q123.65-17.54 126.72-13.44L126.72-13.44L126.72-13.44Q129.22-10.11 130.34-6.59L130.34-6.59L130.34-6.59Q131.46-3.07 132.10-1.38L132.10-1.38L132.10-1.38Q132.74 0.32 132.64 1.25L132.64 1.25L132.64 1.25Q132.54 2.18 131.55 2.66L131.55 2.66L131.55 2.66Q130.56 3.14 128.19 3.58L128.19 3.58L128.19 3.58Q127.10 3.78 123.71 1.02L123.71 1.02L123.71 1.02Q122.24-0.19 120.58-1.63L120.58-1.63L120.58-1.63Q118.91-3.07 117.25-4.35L117.25-4.35L117.25-4.35Q113.41-7.36 111.87-7.49L111.87-7.49L111.87-7.49Q111.74-7.49 111.36-7.62L111.36-7.62L110.21-4.74L110.21-4.74Q109.31-2.62 108.38-0.29L108.38-0.29L108.38-0.29Q107.46 2.05 106.18 3.90L106.18 3.90L106.18 3.90Q104.19 5.25 101.57 4.99L101.57 4.99L101.57 4.99Q98.56 4.67 97.60 2.56L97.60 2.56L97.60 2.56Q96.96 0.58 99.71-9.09L99.71-9.09L99.71-9.09Q101.57-15.87 102.91-20.99L102.91-20.99L102.91-20.99Q104.26-26.11 105.22-29.47L105.22-29.47L105.22-29.47Q106.18-32.83 106.62-34.72L106.62-34.72L106.62-34.72Q107.07-36.61 107.52-38.40L107.52-38.40L107.52-38.40Q108.61-42.56 110.08-45.44ZM175.74-34.62L175.74-34.62L175.74-34.62Q176.51-28.10 166.21-20.74L166.21-20.74L166.21-20.74Q163.52-18.82 161.15-17.22L161.15-17.22L161.15-17.22Q158.78-15.62 157.09-14.30L157.09-14.30L157.09-14.30Q155.39-12.99 155.20-12.03L155.20-12.03L155.20-12.03Q155.07-10.50 153.73-9.47L153.73-9.47L153.73-9.47Q152.38-8.45 150.72-8.03L150.72-8.03L150.72-8.03Q149.06-7.62 147.39-7.74L147.39-7.74L147.39-7.74Q145.73-7.87 144.96-8.64L144.96-8.64L144.96-8.64Q143.17-12.48 147.01-17.86L147.01-17.86L147.01-17.86Q148.74-20.22 151.04-22.62L151.04-22.62L151.04-22.62Q153.34-25.02 155.55-27.30L155.55-27.30L155.55-27.30Q157.76-29.57 159.49-31.62L159.49-31.62L159.49-31.62Q161.47-34.05 161.92-36.10L161.92-36.10L161.73-36.10L161.73-36.10Q161.28-35.71 160.86-35.17L160.86-35.17L160.86-35.17Q160.45-34.62 159.10-33.92L159.10-33.92L159.10-33.92Q157.76-33.22 156.70-32.77L156.70-32.77L156.70-32.77Q155.65-32.32 154.72-31.90L154.72-31.90L154.72-31.90Q153.79-31.49 153.57-31.36L153.57-31.36L153.57-31.36Q153.34-31.23 153.12-31.10L153.12-31.10L153.12-31.10Q152.90-30.98 152.51-30.85L152.51-30.85L151.49-30.46L151.49-30.46Q145.92-29.12 143.55-32L143.55-32L143.55-32Q142.72-33.02 142.02-34.82L142.02-34.82L142.02-34.82Q141.31-37.38 143.42-40.83L143.42-40.83L143.42-40.83Q145.22-43.84 147.90-45.41L147.90-45.41L147.90-45.41Q150.59-46.98 154.66-48.03L154.66-48.03L154.66-48.03Q158.72-49.09 162.69-49.09L162.69-49.09L162.69-49.09Q166.66-49.09 169.98-47.87L169.98-47.87L169.98-47.87Q173.31-46.66 174.98-43.97L174.98-43.97L174.98-43.97Q175.62-42.75 175.36-41.34L175.36-41.34L175.36-41.34Q175.10-39.94 174.88-39.14L174.88-39.14L174.88-39.14Q174.66-38.34 174.69-37.70L174.69-37.70L174.69-37.70Q174.72-37.06 175.17-36.26L175.17-36.26L175.17-36.26Q175.62-35.46 175.74-34.62ZM151.30 1.02L151.30 1.02L151.30 1.02Q149.95 3.71 147.78 4.96L147.78 4.96L147.78 4.96Q145.60 6.21 143.58 6.24L143.58 6.24L143.58 6.24Q141.57 6.27 140.22 5.12L140.22 5.12L140.22 5.12Q138.88 3.97 139.14 1.73L139.14 1.73L139.14 1.73Q139.26-1.41 142.27-2.56L142.27-2.56L142.27-2.56Q146.11-4.10 149.50-2.56L149.50-2.56L149.50-2.56Q152.64-1.15 151.30 1.02Z" fill="url(#editing-sticker-gradient)" stroke="#000" stroke-width="2.5"></path></g></g><style>text {
  font-size: 64px;
  font-family: Arial Black;
  dominant-baseline: central;
  text-anchor: middle;
}</style></svg>