<svg width="151.4375px" height="90.8px" xmlns="http://www.w3.org/2000/svg" viewBox="174.28125 29.6 151.4375 90.8" style="background: rgba(0, 0, 0, 0);" preserveAspectRatio="xMidYMid"><defs><linearGradient id="editing-sticker-gradient" x1="0.5" y1="0.2" x2="0.5" y2="0.8"><stop offset="0" stop-color="#fd9"></stop><stop offset="1" stop-color="#9df"></stop></linearGradient><filter id="editing-sticker" x="-100%" y="-100%" width="300%" height="300%"><feMorphology operator="erode" radius="1" in="SourceAlpha" result="alpha-erode"></feMorphology><feConvolveMatrix order="3,3" divisor="1" kernelMatrix="0 1 0 1 1 1 0 1 0" in="alpha-erode" result="alpha-round"></feConvolveMatrix><feMorphology operator="dilate" radius="3.5" in="alpha-round" result="dilate-shadow"></feMorphology><feGaussianBlur in="dilate-shadow" stdDeviation="1.5" result="shadow"></feGaussianBlur><feFlood flood-color="#fff" result="flood-sticker"></feFlood><feComposite operator="in" in="flood-sticker" in2="alpha-round" result="comp-sticker"></feComposite><feMorphology operator="dilate" radius="3" in="comp-sticker" result="morph-sticker"></feMorphology><feConvolveMatrix order="3,3" divisor="1" kernelMatrix="0 1 0 1 1 1 0 1 0" in="morph-sticker" result="sticker"></feConvolveMatrix><feMerge><feMergeNode in="shadow"></feMergeNode><feMergeNode in="sticker"></feMergeNode><feMergeNode in="SourceGraphic"></feMergeNode></feMerge></filter></defs><g filter="url(#editing-sticker)"><g transform="translate(199.18485283851624, 92.026611328125)"><path d="M9.42-8.89L9.08-8.28L7.26-3.65L7.26-3.65Q6.88-2.58 6.57-1.44L6.57-1.44L6.57-1.44Q6.27-0.30 5.93 0.55L5.93 0.55L5.93 0.55Q5.59 1.41 4.88 1.90L4.88 1.90L4.88 1.90Q4.18 2.39 3.31 2.64L3.31 2.64L3.31 2.64Q2.43 2.89 1.50 2.85L1.50 2.85L1.50 2.85Q0.57 2.81-0.15 2.51L-0.15 2.51L-0.15 2.51Q-1.79 1.75-1.29 0L-1.29 0L-1.29 0Q0.46-7.68 1.99-12.31L1.99-12.31L1.99-12.31Q3.53-16.95 4.54-19.61L4.54-19.61L4.54-19.61Q5.55-22.27 6.65-25.23L6.65-25.23L6.65-25.23Q6.76-26.33 7.56-27.21L7.56-27.21L7.56-27.21Q8.36-28.08 9.44-28.65L9.44-28.65L9.44-28.65Q10.53-29.22 11.70-29.47L11.70-29.47L11.70-29.47Q12.88-29.72 13.79-29.53L13.79-29.53L13.79-29.53Q14.71-29.34 15.14-28.69L15.14-28.69L15.14-28.69Q15.58-28.04 15.20-26.83L15.20-26.83L15.20-26.83Q13.83-23.33 13.26-21.89L13.26-21.89L13.26-21.89Q12.69-20.44 12.24-19.30L12.24-19.30L11.17-16.80L11.17-16.80Q11.97-16.76 13.19-17.02L13.19-17.02L13.19-17.02Q15.39-17.52 16.38-17.37L16.38-17.37L16.38-17.37Q16.38-17.56 16.57-18.01L16.57-18.01L16.57-18.01Q17.63-22.65 18.96-26.52L18.96-26.52L18.96-26.52Q19.91-29.72 23.86-29.87L23.86-29.87L23.86-29.87Q25.42-29.87 26.22-29.11L26.22-29.11L26.22-29.11Q27.09-28.31 26.45-26.94L26.45-26.94L26.45-26.94Q22.95-17.14 21.51-11.48L21.51-11.48L21.51-11.48Q19.87-4.94 19.36-2.66L19.36-2.66L19.36-2.66Q18.85-0.38 18.47 0.04L18.47 0.04L18.47 0.04Q18.09 0.46 17.69 0.63L17.69 0.63L17.69 0.63Q17.29 0.80 16.91 0.95L16.91 0.95L16.91 0.95Q16.53 1.10 16.30 1.71L16.30 1.71L16.19 1.71L16.19 1.71Q15.88 2.39 14.86 2.77L14.86 2.77L14.86 2.77Q13.83 3.15 12.79 3.06L12.79 3.06L12.79 3.06Q11.74 2.96 11.04 2.30L11.04 2.30L11.04 2.30Q10.34 1.63 10.68 0.27L10.68 0.27L10.68 0.27Q11.06-1.90 11.93-4.39L11.93-4.39L11.93-4.39Q12.81-6.88 13.32-8.28L13.32-8.28L13.32-8.28Q13.83-9.69 14.17-10.91L14.17-10.91L14.17-10.91Q13.87-10.75 13.58-10.68L13.58-10.68L13.58-10.68Q13.30-10.60 12.88-10.39L12.88-10.39L12.88-10.39Q12.46-10.18 12.03-10.03L12.03-10.03L12.03-10.03Q11.59-9.88 11.17-9.73L11.17-9.73L11.17-9.73Q10.11-9.31 9.42-8.89L9.42-8.89ZM13.38-10.83L13.38-10.83L13.38-10.83Q13.41-10.83 13.76-10.94L13.76-10.94L13.76-10.94Q13.53-10.87 13.38-10.83ZM38.38-25.69L38.38-25.69L38.38-25.69Q37.05-21.55 35.93-18.20L35.93-18.20L35.93-18.20Q34.81-14.86 33.88-12.05L33.88-12.05L33.88-12.05Q32.95-9.23 32.15-6.86L32.15-6.86L32.15-6.86Q31.35-4.48 30.67-2.32L30.67-2.32L30.67-2.32Q30.29 0.19 28.20 1.22L28.20 1.22L28.20 1.22Q26.98 1.79 25.31 1.79L25.31 1.79L25.31 1.79Q23.64 1.79 22.80 1.43L22.80 1.43L22.80 1.43Q21.96 1.06 21.72 0.38L21.72 0.38L21.72 0.38Q21.47-0.30 21.72-1.27L21.72-1.27L21.72-1.27Q21.96-2.24 22.57-3.93L22.57-3.93L22.57-3.93Q23.18-5.62 24.11-8.51L24.11-8.51L24.11-8.51Q25.04-11.40 26.07-14.36L26.07-14.36L26.07-14.36Q28.61-21.77 30.10-24.62L30.10-24.62L30.10-24.62Q30.67-25.69 31.24-26.05L31.24-26.05L31.24-26.05Q31.81-26.41 32.34-26.58L32.34-26.58L32.34-26.58Q32.87-26.75 33.33-26.98L33.33-26.98L33.33-26.98Q33.78-27.21 34.14-28.12L34.14-28.12L34.14-28.12Q34.50-29.03 35.47-29.37L35.47-29.37L35.47-29.37Q36.44-29.72 37.30-29.43L37.30-29.43L37.30-29.43Q38.15-29.15 38.59-28.21L38.59-28.21L38.59-28.21Q39.03-27.28 38.38-25.69ZM56.35-28.65L56.35-28.65L56.51-28.61L56.51-28.61Q57.46-28.04 58.16-27.34L58.16-27.34L58.16-27.34Q58.86-26.64 59.45-25.86L59.45-25.86L59.45-25.86Q60.04-25.08 60.38-24.17L60.38-24.17L60.38-24.17Q61.83-20.67 57.87-16.34L57.87-16.34L57.87-16.34Q56.20-14.52 54.11-13.22L54.11-13.22L54.11-13.22Q54.64-12.84 55.12-12.67L55.12-12.67L55.12-12.67Q55.59-12.50 56.47-12.03L56.47-12.03L56.47-12.03Q57.34-11.55 57.61-10.24L57.61-10.24L57.61-10.24Q57.87-8.93 57.47-7.30L57.47-7.30L57.47-7.30Q57.08-5.66 56.03-3.93L56.03-3.93L56.03-3.93Q54.99-2.20 53.31-0.84L53.31-0.84L53.31-0.84Q49.51 2.32 44.50 1.82L44.50 1.82L44.50 1.82Q43.78 1.82 43.59 1.71L43.59 1.71L43.59 1.71Q43.40 1.60 43.28 1.52L43.28 1.52L43.28 1.52Q43.17 1.44 42.79 1.41L42.79 1.41L42.79 1.41Q41.84 2.17 40.62 2.36L40.62 2.36L40.62 2.36Q39.41 2.55 38.32 2.17L38.32 2.17L38.32 2.17Q37.24 1.79 36.50 0.87L36.50 0.87L36.50 0.87Q35.76-0.04 35.76-1.52L35.76-1.52L35.76-1.52Q35.87-2.51 36.14-3.08L36.14-3.08L36.14-3.08Q36.02-3.42 36.02-3.91L36.02-3.91L36.02-3.91Q37.32-10.79 38.46-14.44L38.46-14.44L38.46-14.44Q40.77-21.70 43.47-25.38L43.47-25.38L43.47-25.38Q45.68-28.50 49.59-29.41L49.59-29.41L49.59-29.41Q53.35-30.29 56.35-28.65ZM44.38-2.13L44.54-2.13L44.54-2.13Q44.99-2.24 45.31-2.19L45.31-2.19L45.31-2.19Q45.64-2.13 46.09-2.20L46.09-2.20L46.09-2.20Q47.20-2.32 49.06-3.57L49.06-3.57L49.06-3.57Q50.24-4.75 50.31-5.89L50.31-5.89L50.31-5.89Q50.39-7.03 49.97-7.35L49.97-7.35L49.97-7.35Q49.55-7.68 48.85-7.68L48.85-7.68L48.85-7.68Q48.15-7.68 47.29-7.47L47.29-7.47L47.29-7.47Q46.44-7.26 45.64-7.22L45.64-7.22L45.64-7.14L45.64-7.14Q45.45-6.38 45.26-5.81L45.26-5.81L45.26-5.81Q45.07-5.24 44.92-4.71L44.92-4.71L44.92-4.71Q44.57-3.46 44.38-2.13L44.38-2.13ZM51.60-21.89L51.60-21.89L51.60-21.89Q50.46-22.04 49.13-20.10L49.13-20.10L49.13-20.10Q48.30-18.89 47.84-16.42L47.84-16.42L47.84-16.42Q48.64-16.76 49.42-17.00L49.42-17.00L49.42-17.00Q50.20-17.25 50.88-17.56L50.88-17.56L50.88-17.56Q52.55-18.28 53.28-19.30L53.28-19.30L53.28-19.30Q54.11-20.29 53.81-20.98L53.81-20.98L53.81-20.98Q53.35-21.58 52.33-22.08L52.33-22.08L52.33-22.08Q52.02-21.81 51.60-21.89ZM51.15-22.04L51.03-22.04L51.15-22.04ZM65.36-26.98L65.36-26.98L65.36-26.98Q66.08-28.73 67.41-28.23L67.41-28.23L67.41-28.23Q67.79-29.07 68.08-29.30L68.08-29.30L68.08-29.30Q68.36-29.53 68.67-29.66L68.67-29.66L68.67-29.66Q68.97-29.79 69.31-29.94L69.31-29.94L69.31-29.94Q69.65-30.10 70.38-30.21L70.38-30.21L70.38-30.21Q71.10-30.32 71.97-30.34L71.97-30.34L71.97-30.34Q72.85-30.36 73.74-30.25L73.74-30.25L73.74-30.25Q74.63-30.13 75.24-29.75L75.24-29.75L75.24-29.75Q76.72-28.88 75.89-26.94L75.89-26.94L75.89-26.94Q75.96-26.98 75.85-26.87L75.85-26.87L75.51-26.22L75.24-25.88L75.24-25.88Q75.05-25.69 74.06-23.56L74.06-23.56L74.06-23.56Q73.26-22.04 72.43-20.56L72.43-20.56L72.43-20.56Q71.06-18.01 70.76-17.29L70.76-17.29L70.76-17.29Q72.09-18.01 73.83-19.38L73.83-19.38L73.83-19.38Q77.14-21.93 78.05-22.42L78.05-22.42L78.05-22.42Q78.96-22.91 79.32-23.03L79.32-23.03L79.32-23.03Q79.69-23.14 80.03-23.09L80.03-23.09L80.03-23.09Q80.37-23.03 80.75-22.88L80.75-22.88L81.70-22.50L81.70-22.50Q82.61-22.19 82.69-20.29L82.69-20.29L82.69-20.29Q82.73-18.43 81.93-17.48L81.93-17.48L81.93-17.48Q78.47-13.00 74.14-11.48L74.14-11.48L74.14-11.48Q72.81-10.98 71.40-10.64L71.40-10.64L71.40-10.64Q73.42-10.41 75.24-7.98L75.24-7.98L75.24-7.98Q76.72-6.00 77.39-3.91L77.39-3.91L77.39-3.91Q78.05-1.82 78.43-0.82L78.43-0.82L78.43-0.82Q78.81 0.19 78.75 0.74L78.75 0.74L78.75 0.74Q78.70 1.29 78.11 1.58L78.11 1.58L78.11 1.58Q77.52 1.86 76.11 2.13L76.11 2.13L76.11 2.13Q75.47 2.24 73.45 0.61L73.45 0.61L73.45 0.61Q72.58-0.11 71.59-0.97L71.59-0.97L71.59-0.97Q70.60-1.82 69.62-2.58L69.62-2.58L69.62-2.58Q67.34-4.37 66.42-4.45L66.42-4.45L66.42-4.45Q66.35-4.45 66.12-4.52L66.12-4.52L65.44-2.81L65.44-2.81Q64.90-1.56 64.35-0.17L64.35-0.17L64.35-0.17Q63.80 1.22 63.04 2.32L63.04 2.32L63.04 2.32Q61.86 3.12 60.31 2.96L60.31 2.96L60.31 2.96Q58.52 2.77 57.95 1.52L57.95 1.52L57.95 1.52Q57.57 0.34 59.20-5.40L59.20-5.40L59.20-5.40Q60.31-9.42 61.10-12.46L61.10-12.46L61.10-12.46Q61.90-15.50 62.47-17.50L62.47-17.50L62.47-17.50Q63.04-19.49 63.31-20.61L63.31-20.61L63.31-20.61Q63.57-21.74 63.84-22.80L63.84-22.80L63.84-22.80Q64.49-25.27 65.36-26.98ZM104.35-20.56L104.35-20.56L104.35-20.56Q104.80-16.68 98.69-12.31L98.69-12.31L98.69-12.31Q97.09-11.17 95.68-10.22L95.68-10.22L95.68-10.22Q94.28-9.27 93.27-8.49L93.27-8.49L93.27-8.49Q92.26-7.71 92.15-7.14L92.15-7.14L92.15-7.14Q92.07-6.23 91.28-5.62L91.28-5.62L91.28-5.62Q90.48-5.02 89.49-4.77L89.49-4.77L89.49-4.77Q88.50-4.52 87.51-4.60L87.51-4.60L87.51-4.60Q86.53-4.67 86.07-5.13L86.07-5.13L86.07-5.13Q85.01-7.41 87.29-10.60L87.29-10.60L87.29-10.60Q88.31-12.01 89.68-13.43L89.68-13.43L89.68-13.43Q91.05-14.86 92.36-16.21L92.36-16.21L92.36-16.21Q93.67-17.56 94.70-18.77L94.70-18.77L94.70-18.77Q95.87-20.22 96.14-21.43L96.14-21.43L96.03-21.43L96.03-21.43Q95.76-21.20 95.51-20.88L95.51-20.88L95.51-20.88Q95.27-20.56 94.47-20.14L94.47-20.14L94.47-20.14Q93.67-19.72 93.04-19.46L93.04-19.46L93.04-19.46Q92.42-19.19 91.86-18.94L91.86-18.94L91.86-18.94Q91.31-18.70 91.18-18.62L91.18-18.62L91.18-18.62Q91.05-18.54 90.91-18.47L90.91-18.47L90.91-18.47Q90.78-18.39 90.55-18.32L90.55-18.32L89.95-18.09L89.95-18.09Q86.64-17.29 85.23-19L85.23-19L85.23-19Q84.74-19.61 84.32-20.67L84.32-20.67L84.32-20.67Q83.90-22.19 85.16-24.24L85.16-24.24L85.16-24.24Q86.22-26.03 87.82-26.96L87.82-26.96L87.82-26.96Q89.41-27.89 91.83-28.52L91.83-28.52L91.83-28.52Q94.24-29.15 96.60-29.15L96.60-29.15L96.60-29.15Q98.95-29.15 100.93-28.42L100.93-28.42L100.93-28.42Q102.90-27.70 103.89-26.11L103.89-26.11L103.89-26.11Q104.27-25.38 104.12-24.55L104.12-24.55L104.12-24.55Q103.97-23.71 103.83-23.24L103.83-23.24L103.83-23.24Q103.70-22.76 103.72-22.38L103.72-22.38L103.72-22.38Q103.74-22.00 104.01-21.53L104.01-21.53L104.01-21.53Q104.27-21.05 104.35-20.56ZM89.83 0.61L89.83 0.61L89.83 0.61Q89.03 2.20 87.74 2.94L87.74 2.94L87.74 2.94Q86.45 3.69 85.25 3.71L85.25 3.71L85.25 3.71Q84.06 3.72 83.26 3.04L83.26 3.04L83.26 3.04Q82.46 2.36 82.61 1.03L82.61 1.03L82.61 1.03Q82.69-0.84 84.47-1.52L84.47-1.52L84.47-1.52Q86.75-2.43 88.77-1.52L88.77-1.52L88.77-1.52Q90.63-0.68 89.83 0.61Z" fill="url(#editing-sticker-gradient)" stroke="#000" stroke-width="2.5"></path></g></g><style>text {
  font-size: 64px;
  font-family: Arial Black;
  dominant-baseline: central;
  text-anchor: middle;
}</style></svg>